<?xml version="1.0" encoding="iso-8859-1"?>
<!-- Generator: Adobe Illustrator 16.0.0, SVG Export Plug-In . SVG Version: 6.00 Build 0)  -->
<!DOCTYPE svg PUBLIC "-//W3C//DTD SVG 1.1//EN" "http://www.w3.org/Graphics/SVG/1.1/DTD/svg11.dtd">
<svg version="1.1" id="Capa_1" xmlns="http://www.w3.org/2000/svg" xmlns:xlink="http://www.w3.org/1999/xlink" x="0px" y="0px"
	 width="91.249px" height="91.25px" viewBox="0 0 91.249 91.25" style="enable-background:new 0 0 91.249 91.25;"
	 xml:space="preserve">
<g>
	<g>
		<path d="M19.667,14.833H1c-0.552,0-1,0.447-1,1v67.5c0,0.553,0.448,1,1,1h18.667c0.552,0,1-0.447,1-1v-67.5
			C20.667,15.28,20.219,14.833,19.667,14.833z"/>
		<path d="M90.25,22.373h-2.167v-5.163l-9.59-11.001h-49.91c-1.654,0-3,1.346-3,3v13.164h-2.167c-0.552,0-1,0.447-1,1v60.668
			c0,0.553,0.448,1,1,1h66.833c0.552,0,1-0.447,1-1V23.373C91.25,22.819,90.802,22.373,90.25,22.373z M40.875,73.375h-9.75v-9.75
			h9.75V73.375z M40.875,58.375h-9.75v-9.75h9.75V58.375z M40.875,43.375h-9.75v-9.75h9.75V43.375z M55.875,73.375h-9.75v-9.75h9.75
			V73.375z M55.875,58.375h-9.75v-9.75h9.75V58.375z M55.875,43.375h-9.75v-9.75h9.75V43.375z M70.875,73.375h-9.75v-9.75h9.75
			V73.375z M70.875,58.375h-9.75v-9.75h9.75V58.375z M70.875,43.375h-9.75v-9.75h9.75V43.375z M84.083,22.373h-54.5V10.208h45.935
			v8.449h8.522l0.043,0.05V22.373z"/>
	</g>
</g>
<g>
</g>
<g>
</g>
<g>
</g>
<g>
</g>
<g>
</g>
<g>
</g>
<g>
</g>
<g>
</g>
<g>
</g>
<g>
</g>
<g>
</g>
<g>
</g>
<g>
</g>
<g>
</g>
<g>
</g>
</svg>
